# xmcd
# 
# Track frame offsets:
#     150
#     18405
#     40178
#     57863
#     76823
#     94535
#     113693
#     141150
#     156163
# 
# Disc length: 2336
# 
# Revision: 4
# Processed by: cddbd v1.5.2PL0 Copyright (c) Steve Scherf et al.
# Submitted via: fre:ac v1.1beta1pre2
# 
DISCID=64091e09
DTITLE=Kiss - Creatures Of The Night
DYEAR=1982
DGENRE=Heavy Metal
TTITLE0=Creatures Of The Night
TTITLE1=Saint And Sinner
TTITLE2=Keep Me Comin'
TTITLE3=Rock And Roll Hell
TTITLE4=Danger
TTITLE5=I Love It Loud
TTITLE6=I Still Love You
TTITLE7=Killer
TTITLE8=War Machine
EXTD=YEAR: 1982
EXTT0=
EXTT1=
EXTT2=
EXTT3=
EXTT4=
EXTT5=
EXTT6=
EXTT7=
EXTT8=
PLAYORDER=
